PathFileType	3	(X/Y/Z)	F:\ViconData\AntennenMessung\Messung1\Session1\ID20.trc
DataRate	CameraRate	NumFrames	NumMarkers	Units	OrigDataRate	OrigDataStartFrame	OrigNumFrames
120.0	120.0	4	70	mm	120.0	130	1036	
Frame#	Time	Ashort			Along			Atop			A4			Bshort			Blong			Btop			B4			Cshort			Clong			Ctop			C4			Dshort			Dlong			Dtop			D4			Eshort			Elong			Etop			E4			Fshort			Flong			Ftop			F4			Gshort			Glong			Gtop			G4			Hshort			Hlong			Htop			H4			I1			I2			I3			I4			I5			WandAshort			WandAlong			WandAtop			WandA4			WandA15			WandBshort			WandB4			WandB5			WandBtop			WandBlong			WandCshort			WandClong			WandCtop			WandC4			WandC5			Acenter			Aantenna			Bcenter			Bantenna			Ccenter			Cantenna			Dcenter			Dantenna			Ecenter			Eantenna			Fcenter			Fantenna			Gcenter			Gantenna			Hcenter			Hantenna			Icenter			Iantenna			
		X1	Y1	Z1	X2	Y2	Z2	X3	Y3	Z3	X4	Y4	Z4	X5	Y5	Z5	X6	Y6	Z6	X7	Y7	Z7	X8	Y8	Z8	X9	Y9	Z9	X10	Y10	Z10	X11	Y11	Z11	X12	Y12	Z12	X13	Y13	Z13	X14	Y14	Z14	X15	Y15	Z15	X16	Y16	Z16	X17	Y17	Z17	X18	Y18	Z18	X19	Y19	Z19	X20	Y20	Z20	X21	Y21	Z21	X22	Y22	Z22	X23	Y23	Z23	X24	Y24	Z24	X25	Y25	Z25	X26	Y26	Z26	X27	Y27	Z27	X28	Y28	Z28	X29	Y29	Z29	X30	Y30	Z30	X31	Y31	Z31	X32	Y32	Z32	X33	Y33	Z33	X34	Y34	Z34	X35	Y35	Z35	X36	Y36	Z36	X37	Y37	Z37	X38	Y38	Z38	X39	Y39	Z39	X40	Y40	Z40	X41	Y41	Z41	X42	Y42	Z42	X43	Y43	Z43	X44	Y44	Z44	X45	Y45	Z45	X46	Y46	Z46	X47	Y47	Z47	X48	Y48	Z48	X49	Y49	Z49	X50	Y50	Z50	X51	Y51	Z51	X52	Y52	Z52	X53	Y53	Z53	X54	Y54	Z54	X55	Y55	Z55	X56	Y56	Z56	X57	Y57	Z57	X58	Y58	Z58	X59	Y59	Z59	X60	Y60	Z60	X61	Y61	Z61	X62	Y62	Z62	X63	Y63	Z63	X64	Y64	Z64	X65	Y65	Z65	X66	Y66	Z66	X67	Y67	Z67	X68	Y68	Z68	X69	Y69	Z69	X70	Y70	Z70	
130	1.075	-1038.2264	214.4576	-1644.2081	-1109.399	204.16008	-1599.3378	-1063.9941	172.58997	-1625.4181	-1054.2123	262.31863	-1635.0477	-1353.0261	234.74078	1003.7023	-1281.2484	227.01353	1052.4047	-1322.7322	193.90182	1020.9457	-1284.7573	287.8045	1052.8895	813.88293	187.82257	1209.5884	892.84827	179.0266	1178.6343	844.3338	145.56523	1198.3109	860.86926	292.48273	1168.4043	1115.6707	209.52933	-1401.6431	1056.0507	193.87614	-1460.3488	1095.1364	162.61125	-1423.9711	1069.823	238.53638	-1425.8022	-1204.517	1685.9117	-1563.1981	-1129.1527	1688.276	-1606.0461	-1173.2047	1724.4121	-1581.95	-1134.074	1580.9532	-1603.8807	-1240.5488	1698.7101	1118.33	-1309.3423	1698.7974	1072.0164	-1270.3673	1736.2061	1096.9371	-1245.4591	1592.6941	1110.7621	988.85748	1664.2	1162.261	955.81708	1702.2323	1181.0873	923.01855	1661.9963	1215.3027	939.75592	1659.3834	1159.9294	998.93866	1668.4636	-1579.5421	1058.6576	1669.9597	-1518.6997	1024.9055	1708.0258	-1551.1674	1059.1891	1672.132	-1585.517	-113.21259	159.57817	-223.83276	-29.220928	168.66386	-221.11125	-72.125992	126.89614	-224.51512	-75.799858	164.93465	-254.80968	-78.478523	163.2205	-175.451																																														-1069.0157	210.00287	-1624.7971	-1074.2031	248.65103	-1624.1558	-1321.5103	231.34793	1025.0862	-1320.2462	270.09131	1029.3702	847.82489	184.04175	1196.2832	851.34418	222.82883	1194.2393	1088.7693	202.4664	-1428.1317	1082.6494	240.77505	-1432.131	-1171.9082	1686.9347	-1581.7377	-1170.5601	1647.9586	-1581.5168	-1271.0106	1698.7485	1097.8221	-1271.6802	1659.7653	1098.7434	953.56049	1704.8298	1182.3729	972.75262	1731.7458	1161.6803	1026.343	1669.15	-1551.6223	1027.7839	1630.1793	-1552.0784	-76.15596	163.58672	-222.63203	-80.408447	202.30324	-220.64496
131	1.0833333	-1038.2327	214.45636	-1644.1959	-1109.3872	204.18994	-1599.3607	-1064.0109	172.58841	-1625.4144	-1054.2223	262.289	-1635.0428	-1352.9951	234.85988	1003.6885	-1281.335	227.05368	1052.4545	-1322.7448	193.88606	1020.9771	-1284.7944	287.85117	1052.912	813.86084	187.7561	1209.5703	892.48505	178.41418	1179.2047	844.52734	145.32559	1198.5054	860.8894	292.51642	1168.4143	1115.6799	209.51591	-1401.6233	1056.0496	193.90567	-1460.369	1095.1368	162.46918	-1423.928	1069.8262	238.54285	-1425.8011	-1204.512	1685.9226	-1563.1935	-1129.1497	1688.3008	-1606.0604	-1173.1992	1724.3735	-1581.9283	-1134.0577	1580.9694	-1603.9091	-1240.626	1698.743	1118.4163	-1309.2352	1698.6304	1071.9646	-1270.3944	1736.2488	1096.9468	-1245.4626	1592.7036	1110.7533	988.85828	1664.2081	1162.2642	955.7746	1702.2488	1181.079	922.95135	1661.9598	1215.2434	939.78436	1659.376	1159.9751	998.92542	1668.4926	-1579.5565	1058.7794	1670.1343	-1518.6902	1024.9137	1708.0367	-1551.172	1059.1862	1672.1404	-1585.5093	-113.20369	159.55646	-223.83842	-29.223572	168.65427	-221.10506	-72.189613	126.96755	-224.68295	-75.807976	164.91568	-254.77475	-78.49781	163.21581	-175.4511																																														-1069.021	210.0141	-1624.7957	-1074.1951	248.66408	-1624.157	-1321.4832	231.42719	1025.1328	-1320.1814	270.16879	1029.4215	848.23041	183.67238	1196.2963	851.97302	222.42815	1194.0636	1088.7888	202.47626	-1428.1152	1082.7096	240.79024	-1432.1255	-1171.9098	1686.9513	-1581.7379	-1170.567	1647.975	-1581.5394	-1270.9626	1698.6931	1097.877	-1271.5524	1659.7096	1098.8427	953.53406	1704.825	1182.3531	972.74536	1731.7518	1161.6924	1026.4149	1669.2465	-1551.6021	1027.9231	1630.2781	-1552.0339	-76.220757	163.56293	-222.6347	-80.484352	202.26859	-220.46832
132	1.0916667	-1038.248	214.41954	-1644.1608	-1109.3875	204.15096	-1599.3458	-1063.9413	172.57237	-1625.4534	-1054.2402	262.30481	-1635.0632	-1352.927	234.77853	1003.6218	-1281.2988	227.03008	1052.4739	-1322.7352	193.94096	1020.9099	-1284.7921	287.81277	1052.9304	813.90302	187.69022	1209.5347	892.82794	178.98839	1178.7532	844.38361	145.53056	1198.3505	860.86365	292.50015	1168.3949	1115.6938	209.80389	-1401.819	1056.0742	193.87665	-1460.347	1095.1213	162.46129	-1423.9401	1069.8041	238.54144	-1425.8494	-1204.5223	1685.9164	-1563.192	-1129.17	1688.2766	-1606.0242	-1173.204	1724.4045	-1581.9357	-1134.0775	1580.9309	-1603.8418	-1240.6222	1698.7219	1118.4268	-1309.1971	1698.5559	1071.9275	-1270.4125	1736.288	1096.9644	-1245.4371	1592.6566	1110.7506	988.87903	1664.2238	1162.2742	955.70734	1702.2815	1181.0874	922.90448	1661.9944	1215.2776	939.78723	1659.403	1159.9136	998.9115	1668.4951	-1579.5532	1058.6589	1669.9786	-1518.7104	1024.9004	1708.0319	-1551.1764	1059.1846	1672.1333	-1585.5193	-113.2156	159.5919	-223.86536	-29.226324	168.65065	-221.11806	-72.212646	126.94202	-224.67804	-75.808899	164.95813	-254.81599	-78.490135	163.24181	-175.45023																																														-1068.9449	209.9886	-1624.8229	-1074.1136	248.6391	-1624.1716	-1321.5087	231.37982	1025.0498	-1320.2394	270.12302	1029.334	847.82214	183.95047	1196.3058	851.29382	222.74074	1194.2415	1088.6995	202.59241	-1428.3191	1082.5724	240.88081	-1432.4973	-1171.9125	1686.9379	-1581.7283	-1170.569	1647.9615	-1581.5125	-1270.9363	1698.6484	1097.8713	-1271.479	1659.6636	1098.8108	953.44312	1704.879	1182.3713	972.62677	1731.8181	1161.7007	1026.3295	1669.1759	-1551.6326	1027.7629	1630.205	-1552.09	-76.23053	163.58095	-222.65556	-80.475464	202.29033	-220.51883
133	1.1	-1038.2268	214.46089	-1644.192	-1109.3883	204.08287	-1599.3181	-1063.9673	172.56917	-1625.4509	-1054.2368	262.29114	-1635.0347	-1352.8738	234.91612	1003.6151	-1281.339	227.02235	1052.5071	-1322.7758	193.94968	1020.9099	-1284.6653	287.87927	1052.7491	813.94531	187.76619	1209.5988	892.40002	178.35643	1179.2557	844.30231	145.46739	1198.3955	860.69727	292.24155	1168.3467	1115.701	209.81755	-1401.8069	1056.1145	193.91866	-1460.3221	1095.1505	162.62288	-1423.9709	1069.7982	238.55072	-1425.8347	-1204.5269	1685.9083	-1563.1879	-1129.1365	1688.3062	-1606.0771	-1173.202	1724.3983	-1581.9369	-1134.0663	1580.9437	-1603.8705	-1239.7048	1699.1483	1119.5431	-1309.2714	1698.649	1071.9567	-1270.3673	1736.2177	1096.9352	-1245.4263	1592.6525	1110.7466	988.84052	1664.1907	1162.2354	955.86432	1702.3453	1181.1802	922.86633	1662.0333	1215.2937	939.78851	1659.3838	1159.9417	998.9353	1668.4922	-1579.552	1058.6725	1669.9807	-1518.7015	1024.9115	1708.0391	-1551.177	1059.1964	1672.137	-1585.519	-113.20723	159.56758	-223.83925	-29.216497	168.65338	-221.10974	-72.231506	126.97115	-224.66307	-75.827362	164.90118	-254.79826	-78.492348	163.23695	-175.45515																																														-1069.0022	209.97269	-1624.7852	-1074.2045	248.61804	-1624.0973	-1321.4812	231.452	1025.0709	-1320.1442	270.19135	1029.3693	848.10706	183.66885	1196.3864	851.96704	222.42383	1194.3483	1088.7263	202.62013	-1428.2965	1082.5767	240.90895	-1432.4375	-1171.903	1686.9458	-1581.7473	-1170.5513	1647.9697	-1581.5502	-1270.946	1698.924	1098.1726	-1271.551	1659.9502	1099.4659	953.63354	1704.9264	1182.4617	972.93604	1731.8363	1161.8638	1026.344	1669.1752	-1551.6326	1027.7803	1630.2042	-1552.0892	-76.255875	163.56483	-222.63841	-80.512741	202.27261	-220.49681
